<svg width="200" height="200" viewBox="0 0 200 200" fill="none" xmlns="http://www.w3.org/2000/svg">
<g clip-path="url(#clip0_10400_199433)">
<path fill-rule="evenodd" clip-rule="evenodd" d="M128.195 0.454674L12.5723 8.62801C3.2458 9.40134 0 15.2347 0 22.228V143.548C0 148.995 2.01992 153.655 6.89559 159.881L34.074 193.708C38.5387 199.155 42.5994 200.321 51.1249 199.935L185.394 192.155C196.747 191.381 200 186.321 200 177.768V41.2813C200 36.8613 198.175 35.588 192.805 31.8147C192.496 31.6016 192.187 31.3883 191.879 31.1747L154.977 6.28801C146.047 0.0746747 142.397 -0.711992 128.195 0.454674ZM54.1617 39.048C43.1984 39.7547 40.7118 39.9147 34.4849 35.068L18.6529 23.0147C17.044 21.4547 17.8519 19.508 21.9057 19.1213L133.057 11.348C142.39 10.568 147.252 13.6813 150.902 16.4013L169.966 29.6213C170.781 30.0147 172.808 32.3413 170.37 32.3413L55.5826 38.9547L54.1617 39.048ZM41.3805 176.601V60.7347C41.3805 55.6747 43.0034 53.3413 47.8652 52.948L179.703 45.5613C184.175 45.1747 186.195 47.8947 186.195 52.948V168.041C186.195 173.101 185.38 177.381 178.08 177.768L51.9189 184.768C44.6194 185.155 41.3805 182.828 41.3805 176.601ZM165.919 66.948C166.727 70.448 165.919 73.948 162.262 74.348L156.182 75.5013V161.048C150.902 163.768 146.04 165.321 141.98 165.321C135.488 165.321 133.865 163.375 129.003 157.548L89.2387 97.668V155.601L101.818 158.328C101.818 158.328 101.818 165.328 91.6696 165.328L63.6902 166.881C62.8753 165.321 63.6902 161.435 66.525 160.661L73.8316 158.721V82.1213L63.6902 81.3347C62.8753 77.8347 64.9021 72.7813 70.5858 72.388L100.606 70.4547L141.98 131.108V77.448L131.434 76.288C130.619 72.0013 133.865 68.888 137.919 68.508L165.919 66.948Z" fill="black" style="fill:black;fill-opacity:1;"/>
</g>
<defs>
<clipPath id="clip0_10400_199433">
<rect width="200" height="200.002" fill="white" style="fill:white;fill-opacity:1;"/>
</clipPath>
</defs>
</svg>
