<?xml version="1.0" encoding="UTF-8"?><svg id="Layer_2" xmlns="http://www.w3.org/2000/svg" viewBox="0 0 911.98 191.2"><defs><style>.cls-1{fill:#2d2d2d;}</style></defs><g id="Layer_1-2"><path class="cls-1" d="m161.59,86.51v63.45h-23.69v-54.57c0-20.73-7.19-28.34-22-28.34s-23.27,10.79-23.27,30.24v52.66h-23.69v-54.57c0-20.73-6.98-28.34-21.57-28.34-16.07,0-23.69,10.79-23.69,30.24v52.66H0V46.74h23.69v15.23h.42c8.46-11.42,19.88-16.71,32.57-16.71,15.65,0,26.44,6.98,31.94,19.46,10.15-12.9,22.63-19.46,36.59-19.46,23.69,0,36.38,15.65,36.38,41.24Zm19.19,63.45h23.69V46.74h-23.69v103.22ZM192.62,0c-8.88,0-15.86,7.19-15.86,15.65s6.98,15.86,15.86,15.86,16.08-7.19,16.08-15.86-7.19-15.65-16.08-15.65Zm91.41,45.26c-13.54,0-25.8,5.08-34.47,16.71h-.42v-15.23h-23.69v103.22h23.69v-52.66c0-19.46,8.25-30.24,25.59-30.24,15.86,0,23.48,7.61,23.48,28.34v54.57h23.69v-63.45c0-25.59-13.11-41.24-37.86-41.24ZM416.92,2.11h23.48v147.84h-22.63v-14.81h-.42c-7.4,11-18.61,16.5-33.42,16.5-28.55,0-50.13-20.94-50.13-52.88s21.57-53.51,49.92-53.51c13.54,0,25.17,4.44,32.78,14.17h.42V2.11Zm.85,96.24c0-20.09-11.21-31.73-30.03-31.73-16.5,0-29.82,12.27-29.82,31.73s12.27,31.73,29.61,31.73,30.25-10.58,30.25-31.73Zm148.89.42c0,31.94-21.57,52.88-50.13,52.88-14.8,0-26.01-5.5-33.42-16.5h-.42v14.81h-22.63V2.11h23.48v57.32h.42c7.61-9.73,19.25-14.17,32.78-14.17,28.34,0,49.92,22.42,49.92,53.51Zm-24.11-.42c0-19.46-13.33-31.73-29.82-31.73-18.82,0-30.04,11.63-30.04,31.73,0,21.15,12.27,31.73,30.25,31.73s29.61-13.11,29.61-31.73Zm141.64.25c-.02,31.28-22.43,53.05-54.15,53.05s-54.15-22.84-54.15-53.09,21.43-53.14,53.81-53.3c29.94-.14,54.5,23.4,54.48,53.34Zm-24.11-.04c0-19.67-13.11-32.99-30.03-32.99-17.98,0-30.03,14.38-30.03,32.99s12.27,32.57,30.03,32.57c16.71,0,30.03-13.32,30.03-32.57ZM776.57,2.11h23.48v147.84h-22.63v-14.81h-.42c-7.4,11-18.61,16.5-33.42,16.5-28.55,0-50.13-20.94-50.13-52.88s21.57-53.51,49.92-53.51c13.54,0,25.17,4.44,32.78,14.17h.42V2.11Zm.85,96.24c0-20.09-11.21-31.73-30.03-31.73-16.5,0-29.82,12.27-29.82,31.73s12.27,31.73,29.61,31.73,30.25-10.58,30.25-31.73Zm110.88-51.61v49.28c0,19.46-8.04,30.24-24.96,30.24-15.44,0-22.84-7.61-22.84-28.34v-51.18h-23.69v60.49c0,25.59,12.9,41.24,37.22,41.24,13.32,0,26.23-5.5,33.84-16.29h.42v8.46c0,18.19-10.36,29.19-30.67,29.19-14.8,0-23.9-4.23-35.11-10.15l-5.71,20.73c11.63,6.98,26.65,10.79,42.09,10.79,38.49,0,53.09-23.48,53.09-55.84V46.74h-23.69Z"/></g></svg>